<?xml version="1.0" encoding="utf-8"?>
<!-- Generator: Adobe Illustrator 24.1.2, SVG Export Plug-In . SVG Version: 6.00 Build 0)  -->
<svg version="1.1" id="图层_1" xmlns="http://www.w3.org/2000/svg" xmlns:xlink="http://www.w3.org/1999/xlink" x="0px" y="0px"
	 viewBox="0 0 128 128" style="enable-background:new 0 0 128 128;" xml:space="preserve">
<style type="text/css">
	.st0{fill:#5082FF;}
	.st1{fill:#272727;}
</style>
<path class="st0" d="M120.6,77.7L94,50.8c-14.7-14.9-38.5-14.9-53.2,0L25.6,66.2l19.9,20.1c3.7,3.8,5.3,9.3,5.3,14.6V122
	C25.2,116.2,6.4,93.3,6,65.7C5.5,33.4,31.2,6.5,63.2,6C95.6,5.5,122,32,122,64.7C122,69.2,121.5,73.5,120.6,77.7z"/>
<circle class="st0" cx="64" cy="64" r="7"/>
<path class="st1" d="M96,113c1.7,0,3-1.4,3-3.1v-6.1h6c1.7,0,3-1.4,3-3.1s-1.3-3.1-3-3.1h-6v-3.1h6c1.7,0,3-1.4,3-3.1
	s-1.3-3.1-3-3.1h-4.5l4.1-4.2c1.2-1.2,1.2-3.1,0-4.3s-3.1-1.2-4.2,0l-4,4.1l-4-4.1c-1.2-1.2-3.1-1.2-4.2,0c-1.2,1.2-1.2,3.1,0,4.3
	l4.1,4.2H87c-1.7,0-3,1.4-3,3.1s1.3,3.1,3,3.1h6v3.1h-6c-1.7,0-3,1.4-3,3.1s1.3,3.1,3,3.1h6v6.1C93,111.6,94.3,113,96,113L96,113z"
	/>
</svg>
